<svg width="36" height="36" viewBox="0 0 36 36" fill="none" xmlns="http://www.w3.org/2000/svg">
<g clip-path="url(#clip0_8740_150)">
<path d="M25.5 27C25.5 25.8065 25.0259 24.6619 24.182 23.818C23.3381 22.9741 22.1935 22.5 21 22.5C19.8065 22.5 18.6619 22.9741 17.818 23.818C16.9741 24.6619 16.5 25.8065 16.5 27H19.5C19.5 26.6022 19.658 26.2206 19.9393 25.9393C20.2206 25.658 20.6022 25.5 21 25.5C21.3978 25.5 21.7794 25.658 22.0607 25.9393C22.342 26.2206 22.5 26.6022 22.5 27C22.5 27.75 21.225 28.707 20.1 29.55C18.4125 30.816 16.5 32.25 16.5 34.5V36H25.5V33H20.565C20.9715 32.646 21.4485 32.289 21.9 31.95C23.5875 30.684 25.5 29.25 25.5 27Z" fill="#F0F0F0"/>
<path d="M33 28.5H30V22.5H27V28.5C27 29.2956 27.3161 30.0587 27.8787 30.6213C28.4413 31.1839 29.2044 31.5 30 31.5H33V36H36V22.5H33V28.5Z" fill="#F0F0F0"/>
<path d="M19.5 9H16.5V16.5H10.5V19.5H19.5V9Z" fill="#F0F0F0"/>
<path d="M32.9999 3.00003V8.06103C31.3894 5.62534 29.2103 3.61821 26.6507 2.21292C24.0911 0.807632 21.228 0.0464125 18.3085 -0.00502064C15.3889 -0.0564537 12.5007 0.603445 9.89325 1.9177C7.28576 3.23197 5.03731 5.16109 3.34202 7.53854C1.64672 9.916 0.555531 12.6703 0.162642 15.5638C-0.230248 18.4572 0.0869718 21.4028 1.08692 24.1462C2.08686 26.8896 3.73948 29.3485 5.9021 31.3104C8.06472 33.2724 10.6724 34.6786 13.4999 35.4075V32.3085C11.1679 31.5831 9.0482 30.2993 7.32509 28.5686C5.60197 26.8378 4.32752 24.7125 3.61245 22.3773C2.89738 20.0421 2.76332 17.5676 3.22192 15.1688C3.68051 12.77 4.7179 10.5194 6.24395 8.61264C7.76999 6.70587 9.73854 5.20056 11.9786 4.22748C14.2186 3.2544 16.6623 2.84299 19.0975 3.02899C21.5326 3.21499 23.8856 3.99278 25.9518 5.29478C28.0181 6.59678 29.7351 8.3836 30.9539 10.5H25.4999V13.5H32.9999C33.7955 13.5 34.5586 13.184 35.1212 12.6213C35.6838 12.0587 35.9999 11.2957 35.9999 10.5V3.00003H32.9999Z" fill="#F0F0F0"/>
</g>
<defs>
<clipPath id="clip0_8740_150">
<rect width="36" height="36" fill="white"/>
</clipPath>
</defs>
</svg>
