<svg width="145" height="32" viewBox="0 0 145 32" fill="none" xmlns="http://www.w3.org/2000/svg">
<g clip-path="url(#clip0_8911_330)">
<path d="M14.487 16.5156L28.9805 16.5156V1.95889L14.487 1.95889L14.487 16.5156Z" fill="#B3B3B3"/>
<path d="M-0.000333786 31.0664L14.4932 31.0664L14.4932 16.5097H-0.000333786L-0.000333786 31.0664Z" fill="#B3B3B3"/>
<path d="M39.6641 30.792V28.9046L42.6031 28.5716V3.57891L39.6641 3.26544V1.36503H56.1993C57.0892 1.3747 57.9784 1.31355 58.8587 1.18218C59.6259 1.05809 60.6858 0.855646 62.0513 0.587891L64.184 9.5283L62.4674 10.1814C61.8701 8.73972 61.1016 7.37583 60.1786 6.11932C58.6744 4.12531 56.3445 3.1283 53.1887 3.1283C52.454 3.1283 51.6347 3.16748 50.7374 3.25238C49.8401 3.33728 49.1963 3.46789 48.7347 3.49401V14.5373H51.3356C52.6273 14.6261 53.9028 14.2069 54.8923 13.3683C55.7051 12.5912 56.1147 11.4091 56.1147 9.77646H58.0654V21.3944H56.1147C56.1147 18.0507 54.513 16.3811 51.3096 16.3854H48.7672V28.565L51.5046 28.8981V30.792H39.6641Z" fill="#B3B3B3"/>
<path d="M64.7949 13.7604V12.5262L72.8252 10.5147L72.6171 12.1604V28.82L74.4963 29.1074V30.7923H65.2046V29.1074L67.2463 28.82V16.5882C67.3197 15.8468 67.1384 15.1025 66.7326 14.4788C66.201 14.0009 65.5082 13.7441 64.7949 13.7604ZM66.7456 4.40208C66.9176 3.59137 67.3222 2.849 67.9095 2.26657C68.1605 1.99889 68.4625 1.78464 68.7977 1.63655C69.1328 1.48846 69.4941 1.40956 69.8602 1.40453C70.2538 1.39961 70.6444 1.47329 71.0094 1.62127C71.3744 1.76926 71.7065 1.9886 71.9864 2.26657C72.2774 2.53891 72.5077 2.86996 72.6623 3.23798C72.817 3.60601 72.8924 4.00272 72.8837 4.40208V4.65024C72.8853 5.08043 72.8023 5.50671 72.6394 5.90457C72.4765 6.30243 72.2369 6.66403 71.9344 6.96861C71.6531 7.28505 71.3085 7.53822 70.923 7.71154C70.5375 7.88486 70.1199 7.97441 69.6976 7.97432C69.2626 7.98122 68.8333 7.87474 68.4516 7.66528C68.0698 7.45582 67.7486 7.15054 67.5194 6.77922C67.0464 6.19883 66.7767 5.47822 66.7521 4.72861L66.7456 4.40208Z" fill="#B3B3B3"/>
<path d="M77.7021 12.4078L84.3669 10.5139C84.6175 10.9699 84.8348 11.4435 85.0172 11.931C85.1693 12.4943 85.2908 13.0655 85.3813 13.6421L86.4802 12.5645C87.2885 11.8913 88.2146 11.3753 89.2111 11.0429C90.2142 10.6898 91.2693 10.5088 92.3322 10.5074C93.1343 10.4838 93.9326 10.6284 94.6759 10.932C95.4193 11.2356 96.0915 11.6915 96.6497 12.2706C97.2152 12.8575 97.6579 13.5523 97.9517 14.3139C98.2454 15.0755 98.3841 15.8885 98.3598 16.7049V28.8192L100.31 29.1065V30.7914H90.9472V29.1065L92.9434 28.8192V18.1808C93.0129 16.9259 92.6451 15.6859 91.903 14.6739C91.5587 14.2444 91.1184 13.9024 90.618 13.6755C90.1176 13.4486 89.5711 13.3432 89.0226 13.3678C88.4178 13.3593 87.8185 13.4841 87.2669 13.7335C86.5672 14.1095 85.9219 14.5797 85.3488 15.131V28.8192L87.2279 29.1065V30.7914H77.9102V29.1065L79.9129 28.8192V16.5482C79.9834 15.7587 79.8206 14.9659 79.4447 14.269C79.2259 14.0302 78.954 13.8466 78.6512 13.7331C78.3484 13.6196 78.0233 13.5795 77.7021 13.6159V12.4078Z" fill="#B3B3B3"/>
<path d="M117.912 11.6245V6.08C117.983 5.3402 117.794 4.59885 117.379 3.98367C116.868 3.51061 116.195 3.25336 115.5 3.26531V1.95918L123.543 0L123.38 1.63918V26.3118C123.317 27.0503 123.466 27.7915 123.81 28.4473C124.024 28.6877 124.285 28.8812 124.577 29.016C124.869 29.1508 125.185 29.224 125.507 29.231V30.4588C124.312 30.4365 123.119 30.5482 121.95 30.7918C120.884 31.1184 119.999 31.3796 119.212 31.569C118.86 31.1745 118.561 30.7354 118.322 30.2629C118.134 29.7103 118.008 29.1387 117.945 28.5584C116.919 29.5266 115.758 30.3385 114.498 30.9682C113.438 31.4196 112.295 31.6421 111.143 31.6212C110.102 31.6713 109.064 31.4786 108.11 31.0583C107.155 30.6379 106.311 30.0013 105.642 29.1984C104.307 27.5788 103.642 25.3431 103.646 22.4914C103.533 19.39 104.558 16.3549 106.527 13.9624C107.394 12.8846 108.493 12.0187 109.743 11.4304C110.992 10.8421 112.358 10.5467 113.738 10.5665C114.495 10.5439 115.254 10.5986 116 10.7298C116.676 10.9376 117.319 11.2387 117.912 11.6245ZM117.912 26.9257V13.7143C117.418 13.2541 116.873 12.853 116.286 12.5192C115.803 12.2918 115.273 12.18 114.739 12.1927C113.139 12.1927 111.852 13.0286 110.877 14.7004C109.824 16.6979 109.319 18.9404 109.414 21.1984C109.414 23.6408 109.823 25.502 110.656 26.7755C111.254 27.616 112.119 28.2279 113.109 28.5113C114.098 28.7948 115.154 28.7331 116.104 28.3363C116.77 27.9535 117.378 27.4786 117.912 26.9257Z" fill="#B3B3B3"/>
<path d="M128.004 13.3097V12.1995L134.597 10.5995C135.005 11.6093 135.329 12.6512 135.566 13.7146C135.755 14.9086 135.835 16.1174 135.807 17.326C136.07 16.4521 136.392 15.5968 136.769 14.766C137.103 14.1011 137.509 13.4748 137.978 12.8983C139.279 11.2852 140.579 10.4754 141.977 10.4754C142.633 10.4507 143.273 10.6851 143.759 11.1285C143.991 11.3446 144.175 11.6077 144.298 11.9004C144.421 12.1931 144.481 12.5087 144.474 12.8264C144.495 13.1477 144.447 13.4697 144.335 13.7713C144.223 14.0729 144.049 14.3473 143.824 14.5766C143.326 15.0266 142.672 15.2613 142.003 15.2297C141.097 15.1627 140.237 14.803 139.552 14.2044C139.08 14.7118 138.645 15.2531 138.251 15.824C137.911 16.3797 137.618 16.963 137.374 17.5677C136.57 19.2167 136.133 21.0217 136.093 22.8574V28.846L137.978 29.1334V30.8183H128.661V29.1072L130.663 28.8199V19.4615C130.712 18.0951 130.574 16.7283 130.254 15.3995C130.135 14.8627 129.856 14.3751 129.454 14.0017C129.052 13.6283 128.546 13.3869 128.004 13.3097Z" fill="#B3B3B3"/>
</g>
<defs>
<clipPath id="clip0_8911_330">
<rect width="145" height="32" fill="white"/>
</clipPath>
</defs>
</svg>
