<svg width="177" height="34" viewBox="0 0 177 34" fill="none" xmlns="http://www.w3.org/2000/svg">
<g clip-path="url(#clip0_8911_357)">
<path d="M23.7104 16.711C23.7104 18.1767 23.2808 19.6095 22.4759 20.8281C21.671 22.0468 20.527 22.9966 19.1886 23.5575C17.8501 24.1184 16.3773 24.2651 14.9564 23.9792C13.5354 23.6933 12.2302 22.9875 11.2058 21.9511C10.1814 20.9147 9.48377 19.5943 9.20113 18.1568C8.91849 16.7193 9.06355 15.2293 9.61796 13.8752C10.1724 12.5211 11.1112 11.3637 12.3158 10.5494C13.5204 9.73513 14.9366 9.30051 16.3854 9.30051V0.123047C13.1447 0.123047 9.97672 1.09525 7.28216 2.91672C4.5876 4.7382 2.48744 7.32712 1.24727 10.3561C0.00709959 13.3851 -0.317386 16.7181 0.314848 19.9337C0.947082 23.1493 2.50764 26.103 4.79918 28.4212C7.09071 30.7395 10.0103 32.3183 13.1888 32.9579C16.3672 33.5975 19.6618 33.2693 22.6558 32.0146C25.6498 30.76 28.2089 28.6353 30.0093 25.9093C31.8098 23.1832 32.7708 19.9783 32.7708 16.6997L23.7104 16.711Z" fill="#A8A8A8"/>
<path d="M31.5599 0.00252681C27.2144 -0.0741401 23.0164 1.59651 19.8872 4.64782C16.758 7.69913 14.9533 11.8818 14.8691 16.2778L23.937 16.4474C23.974 14.5068 24.7613 12.6583 26.13 11.2983C27.4987 9.93822 29.3398 9.17505 31.2582 9.17245H31.3923C33.3174 9.23377 35.1411 10.0597 36.4687 11.4713C37.7962 12.883 38.5209 14.7668 38.4856 16.715C38.4503 18.6631 37.6581 20.5189 36.2803 21.8804C34.9026 23.242 33.0502 23.9998 31.1242 23.9898L30.9566 33.1559H31.262C35.6076 33.1959 39.791 31.4878 42.8918 28.4073C45.9926 25.3268 47.7568 21.1263 47.7963 16.7299C47.8358 12.3335 46.1474 8.10128 43.1025 4.96429C40.0576 1.82729 35.9056 0.0424943 31.5599 0.00252681Z" fill="#A8A8A8"/>
<path d="M72.1781 22.1521C72.3071 22.1451 72.4359 22.1679 72.5549 22.2188C72.6739 22.2696 72.7799 22.3472 72.8648 22.4457L74.7993 24.5104C73.9669 25.6236 72.864 26.5 71.5978 27.0545C70.1591 27.6617 68.6101 27.9552 67.0518 27.9156C65.5725 27.9423 64.1038 27.6591 62.7379 27.0839C61.5072 26.5661 60.4018 25.7849 59.4977 24.7941C58.5935 23.7905 57.8993 22.6122 57.4569 21.3302C56.9838 19.9389 56.7483 18.4763 56.7605 17.0051C56.7441 15.4977 57.0201 14.0017 57.5729 12.6017C58.0893 11.3053 58.8629 10.1297 59.8459 9.14755C60.8427 8.16253 62.0275 7.39342 63.3279 6.88716C64.7601 6.33324 66.2827 6.05769 67.8159 6.07499C68.5689 6.0745 69.3203 6.14658 70.0599 6.29026C70.7199 6.43023 71.3671 6.62664 71.9943 6.87737C72.5844 7.1182 73.1483 7.41987 73.6773 7.77761C74.1734 8.10936 74.6309 8.4967 75.0411 8.93227L73.3871 11.1731C73.2787 11.3139 73.1518 11.439 73.0099 11.5449C72.8321 11.6712 72.6175 11.7332 72.4006 11.7211C72.2293 11.7216 72.0603 11.6813 71.9073 11.6036C71.7525 11.5156 71.5881 11.4275 71.414 11.3101L70.8433 10.948C70.6071 10.8009 70.3577 10.6764 70.0985 10.5762C69.7838 10.4567 69.4604 10.3619 69.1313 10.2924C68.688 10.2089 68.2377 10.1696 67.7869 10.175C66.9504 10.1628 66.1205 10.326 65.3495 10.6545C64.6133 10.9579 63.9527 11.4224 63.415 12.0146C62.87 12.6438 62.4526 13.3752 62.1866 14.1674C61.8773 15.0801 61.7267 16.0403 61.7417 17.0051C61.7216 18.0022 61.8721 18.9954 62.1866 19.9407C62.4459 20.7296 62.8531 21.4605 63.386 22.0934C63.8786 22.6603 64.4854 23.114 65.1657 23.4242C65.8516 23.7278 66.5933 23.8812 67.3419 23.8743C67.7492 23.8781 68.1563 23.8553 68.5607 23.8058C68.9095 23.7686 69.2532 23.6932 69.5859 23.5808C69.8995 23.4728 70.201 23.3318 70.4854 23.16C70.7909 22.9749 71.079 22.762 71.3463 22.524C71.4622 22.4279 71.5888 22.3458 71.7235 22.2793C71.8633 22.2021 72.0189 22.1586 72.1781 22.1521Z" fill="#A8A8A8"/>
<path d="M99.319 17.0053C99.3334 18.4821 99.064 19.9477 98.5259 21.3205C98.0245 22.616 97.2676 23.7946 96.3012 24.7845C95.3199 25.7915 94.1401 26.5783 92.8385 27.0938C91.4124 27.6721 89.8869 27.9581 88.3506 27.9354C86.8111 27.9594 85.2822 27.6734 83.853 27.0938C82.5605 26.5802 81.3867 25.8024 80.4048 24.809C79.4229 23.8157 78.654 22.6281 78.1463 21.3205C77.0892 18.5397 77.0892 15.461 78.1463 12.6802C78.65 11.3865 79.4104 10.2109 80.3806 9.226C81.3707 8.22516 82.5522 7.43934 83.853 6.91669C85.2837 6.34259 86.8115 6.05673 88.3506 6.07516C89.8875 6.05549 91.413 6.34487 92.8385 6.92647C94.1363 7.44932 95.3147 8.2352 96.3012 9.23579C97.2676 10.2257 98.0245 11.4043 98.5259 12.6998C99.0633 14.0694 99.3326 15.5317 99.319 17.0053ZM94.2991 17.0053C94.3131 16.0371 94.176 15.0728 93.8928 14.148C93.655 13.3558 93.2564 12.6226 92.7225 11.9952C92.2119 11.405 91.5729 10.9428 90.8557 10.6449C90.0603 10.3198 89.2083 10.1601 88.3506 10.1752C87.4835 10.1602 86.622 10.3198 85.8165 10.6449C85.0993 10.9428 84.4603 11.405 83.9497 11.9952C83.4158 12.6226 83.0172 13.3558 82.7794 14.148C82.4961 15.0728 82.359 16.0371 82.3731 17.0053C82.3598 17.9765 82.4969 18.9439 82.7794 19.8723C83.0163 20.6619 83.4151 21.3921 83.9497 22.0153C84.4576 22.6084 85.0974 23.0712 85.8165 23.3657C86.6243 23.6815 87.4846 23.8377 88.3506 23.8256C89.2073 23.8388 90.0583 23.6826 90.8557 23.3657C91.5748 23.0712 92.2146 22.6084 92.7225 22.0153C93.2571 21.3921 93.6559 20.6619 93.8928 19.8723C94.1884 18.9461 94.3386 17.9786 94.3377 17.0053H94.2991Z" fill="#A8A8A8"/>
<path d="M114.94 10.6645C114.819 10.8652 114.665 11.0438 114.485 11.1929C114.294 11.3311 114.062 11.4001 113.828 11.3886C113.575 11.377 113.329 11.3031 113.112 11.1733L112.241 10.6938C111.883 10.5059 111.511 10.3456 111.129 10.2144C110.669 10.0707 110.189 10.0014 109.707 10.0089C108.976 9.95024 108.249 10.1585 107.657 10.596C107.432 10.797 107.254 11.0463 107.137 11.3257C107.02 11.6051 106.966 11.9074 106.98 12.2105C106.973 12.4068 107.006 12.6023 107.076 12.7855C107.146 12.9687 107.251 13.1359 107.386 13.2771C107.693 13.5853 108.054 13.8341 108.45 14.011C108.94 14.2321 109.444 14.4217 109.959 14.5786C110.529 14.7449 111.1 14.9406 111.69 15.1461C112.283 15.3612 112.865 15.6095 113.431 15.8898C113.987 16.1699 114.496 16.5364 114.94 16.976C115.391 17.4389 115.751 17.9832 116.004 18.5807C116.291 19.3082 116.43 20.0872 116.41 20.8705C116.416 21.8182 116.242 22.7582 115.897 23.6397C115.572 24.4875 115.07 25.2549 114.427 25.8903C113.748 26.5588 112.937 27.0755 112.048 27.407C111.019 27.7862 109.931 27.9719 108.837 27.955C108.161 27.953 107.487 27.8842 106.825 27.7495C106.166 27.6098 105.519 27.4167 104.89 27.1722C104.267 26.9269 103.665 26.629 103.091 26.2817C102.554 25.947 102.06 25.546 101.621 25.0879L103.072 22.7688C103.18 22.5907 103.334 22.4453 103.517 22.348C103.709 22.2395 103.925 22.1822 104.146 22.1817C104.458 22.1919 104.762 22.2865 105.026 22.4557C105.316 22.6514 105.654 22.8569 105.993 23.0819C106.404 23.3239 106.834 23.5302 107.279 23.6984C107.829 23.8933 108.409 23.9861 108.991 23.9724C109.729 24.0202 110.46 23.8094 111.061 23.3755C111.322 23.1434 111.526 22.8524 111.655 22.526C111.785 22.1996 111.836 21.847 111.806 21.4967C111.826 21.052 111.682 20.6156 111.4 20.2736C111.102 19.9436 110.74 19.6803 110.336 19.5005C109.848 19.2777 109.343 19.0945 108.827 18.9526C108.266 18.796 107.695 18.6199 107.105 18.4339C106.513 18.2381 105.935 18.0028 105.374 17.7294C104.816 17.449 104.309 17.0752 103.875 16.6237C103.412 16.1329 103.051 15.5542 102.811 14.9211C102.518 14.1166 102.38 13.263 102.405 12.4062C102.411 11.5801 102.586 10.7641 102.919 10.0097C103.251 9.25523 103.735 8.57865 104.339 8.02247C104.998 7.39917 105.77 6.91072 106.612 6.58404C107.602 6.21263 108.651 6.03016 109.707 6.04586C110.355 6.0461 111.002 6.09845 111.642 6.20241C112.234 6.30243 112.817 6.45636 113.383 6.66232C113.919 6.85273 114.437 7.09181 114.93 7.37665C115.394 7.65327 115.825 7.98148 116.217 8.35517L114.94 10.6645Z" fill="#A8A8A8"/>
<path d="M131.701 19.0802C131.885 19.4814 132.049 19.8924 132.214 20.323C132.378 19.8826 132.552 19.4716 132.736 19.0607C132.92 18.6497 133.113 18.2583 133.306 17.8767L138.733 7.1129C138.808 6.95338 138.909 6.80783 139.032 6.68235C139.126 6.58116 139.242 6.504 139.371 6.45729C139.507 6.4051 139.651 6.37857 139.797 6.37901H144.101V27.7499H139.777V15.401C139.777 14.8074 139.806 14.155 139.864 13.4439L134.264 24.4425C134.109 24.7646 133.863 25.0334 133.558 25.2156C133.264 25.388 132.93 25.4792 132.591 25.4798H131.923C131.584 25.4792 131.25 25.388 130.956 25.2156C130.651 25.0334 130.405 24.7646 130.25 24.4425L124.621 13.4342C124.621 13.7766 124.688 14.1093 124.708 14.4127C124.727 14.716 124.708 15.0585 124.708 15.3423V27.6423H120.336V6.33008H124.64C124.786 6.32965 124.93 6.35618 125.066 6.40837C125.195 6.45508 125.311 6.53223 125.404 6.63342C125.527 6.7589 125.629 6.90445 125.704 7.06398L131.14 17.9256C131.333 18.2974 131.527 18.679 131.701 19.0802Z" fill="#A8A8A8"/>
<path d="M154.45 27.701H149.518V6.32031H154.45V27.701Z" fill="#A8A8A8"/>
<path d="M173.969 22.1521C174.088 22.1525 174.205 22.1723 174.317 22.2109C174.444 22.2662 174.559 22.3459 174.656 22.4457L176.59 24.5104C175.758 25.6236 174.655 26.5 173.389 27.0545C171.95 27.6618 170.401 27.9552 168.843 27.9156C167.363 27.9423 165.895 27.6591 164.529 27.0839C163.298 26.5661 162.193 25.785 161.289 24.7942C160.384 23.7905 159.69 22.6123 159.248 21.3302C158.765 19.9345 158.526 18.4643 158.542 16.9855C158.525 15.4781 158.801 13.9821 159.354 12.5822C159.877 11.2745 160.663 10.0911 161.662 9.10732C162.661 8.1235 163.851 7.36077 165.158 6.86762C166.59 6.3137 168.112 6.03816 169.646 6.05545C171.086 6.04598 172.515 6.31844 173.853 6.85784C174.443 7.09867 175.007 7.40034 175.536 7.75808C176.032 8.08983 176.49 8.47716 176.9 8.91274L175.246 11.1536C175.137 11.2943 175.011 11.4194 174.869 11.5254C174.691 11.6517 174.476 11.7137 174.259 11.7015C174.088 11.702 173.919 11.6618 173.766 11.5841C173.611 11.496 173.447 11.408 173.273 11.2905L172.702 10.9285C172.466 10.7813 172.216 10.6568 171.957 10.5567C171.642 10.4372 171.319 10.3423 170.99 10.2729C170.547 10.1894 170.096 10.15 169.646 10.1555C168.809 10.1432 167.979 10.3065 167.208 10.6349C166.472 10.9384 165.811 11.4029 165.274 11.9951C164.729 12.6242 164.311 13.3557 164.045 14.1478C163.736 15.0606 163.585 16.0207 163.6 16.9855C163.58 17.9827 163.731 18.9759 164.045 19.9211C164.305 20.71 164.712 21.4409 165.245 22.0739C165.737 22.6408 166.344 23.0945 167.024 23.4047C167.71 23.7082 168.452 23.8616 169.201 23.8548C169.608 23.8586 170.015 23.8357 170.419 23.7863C170.768 23.7491 171.112 23.6736 171.445 23.5612C171.758 23.4533 172.06 23.3122 172.344 23.1404C172.65 22.9553 172.938 22.7424 173.205 22.5044C173.321 22.4084 173.448 22.3263 173.582 22.2598C173.703 22.1987 173.834 22.1621 173.969 22.1521Z" fill="#A8A8A8"/>
</g>
<defs>
<clipPath id="clip0_8911_357">
<rect width="177" height="34" fill="white"/>
</clipPath>
</defs>
</svg>
