<svg width="36" height="36" viewBox="0 0 36 36" fill="none" xmlns="http://www.w3.org/2000/svg">
<g clip-path="url(#clip0_8740_127)">
<path d="M17.922 36.0137L17.391 35.7782C16.8 35.5187 3 29.2862 3 18.0002V8.21417C3.00053 7.27243 3.29818 6.35486 3.85056 5.59213C4.40294 4.8294 5.1819 4.26041 6.0765 3.96617L18 0.0136719L29.9235 3.96617C30.8181 4.26041 31.5971 4.8294 32.1494 5.59213C32.7018 6.35486 32.9995 7.27243 33 8.21417V18.0002C33 30.8657 19.068 35.6327 18.474 35.8307L17.922 36.0137ZM18 3.15917L7.026 6.79817C6.72742 6.8957 6.46736 7.08521 6.28306 7.33956C6.09876 7.59391 5.99968 7.90007 6 8.21417V18.0002C6 26.2412 15.66 31.5872 18.0705 32.7917C20.4765 31.8242 30 27.3947 30 18.0002V8.21417C30.0003 7.90007 29.9012 7.59391 29.7169 7.33956C29.5326 7.08521 29.2726 6.8957 28.974 6.79817L18 3.15917Z" fill="#F0F0F0"/>
<path d="M16.6666 21.813H16.6171C16.2375 21.8072 15.8629 21.7244 15.5162 21.5698C15.1694 21.4151 14.8576 21.1916 14.5996 20.913L11.1406 17.313L13.3021 15.24L16.6681 18.75L24.4396 10.9785L26.5606 13.0995L18.6691 20.991C18.4063 21.2536 18.094 21.4615 17.7502 21.6026C17.4065 21.7437 17.0382 21.8152 16.6666 21.813Z" fill="#F0F0F0"/>
</g>
<defs>
<clipPath id="clip0_8740_127">
<rect width="36" height="36" fill="white"/>
</clipPath>
</defs>
</svg>
