<svg width="36" height="36" viewBox="0 0 36 36" fill="none" xmlns="http://www.w3.org/2000/svg">
<path d="M12 0C7.0365 0 3 4.0365 3 9C3 13.9635 7.0365 18 12 18C16.9635 18 21 13.9635 21 9C21 4.0365 16.9635 0 12 0ZM12 15C8.691 15 6 12.309 6 9C6 5.691 8.691 3 12 3C15.309 3 18 5.691 18 9C18 12.309 15.309 15 12 15ZM7.5 21H16.5V24H7.5C5.019 24 3 26.019 3 28.5V36H0V28.5C0 24.3645 3.3645 21 7.5 21ZM33.429 17.4015L27.75 15.519L22.071 17.4015C20.5335 17.9115 19.5 19.341 19.5 20.961V26.1C19.5 31.4535 25.071 34.6545 26.7795 35.508L27.6855 35.961L28.626 35.583C30.3555 34.887 36.0015 32.145 36.0015 26.1V20.961C36.0015 19.341 34.9695 17.9115 33.4305 17.4015H33.429ZM33 26.1C33 29.973 29.364 31.9875 27.8175 32.6685C26.4435 31.932 22.5 29.52 22.5 26.1V20.961C22.5 20.637 22.707 20.3505 23.0145 20.2485L27.75 18.6795L32.4855 20.2485C32.793 20.3505 33 20.637 33 20.961V26.1Z" fill="#F0F0F0"/>
</svg>
