<svg width="177" height="43" viewBox="0 0 177 43" fill="none" xmlns="http://www.w3.org/2000/svg">
<g clip-path="url(#clip0_8912_421)">
<path fill-rule="evenodd" clip-rule="evenodd" d="M24.2647 0L37.4862 14.2073L8.60059 14.1875L24.2647 0Z" fill="#A8A8A8"/>
<path fill-rule="evenodd" clip-rule="evenodd" d="M0 21.9756L12.309 35.1998L13.4459 21.9855L0 21.9756Z" fill="#A8A8A8"/>
<path fill-rule="evenodd" clip-rule="evenodd" d="M42.7428 22.0073L42.7264 22.0199L19.5664 42.9996L21.3712 21.9902L42.7428 22.0073Z" fill="#A8A8A8"/>
<path fill-rule="evenodd" clip-rule="evenodd" d="M172.922 24.9897H164.741C165.045 23.3648 166.359 21.4996 169.075 21.4996C171.961 21.4996 172.908 23.4288 172.922 24.9897ZM168.269 35.1623C170.851 35.1623 173.523 34.3872 175.289 32.8946L173.556 30.0427C172.412 31.059 170.441 31.6379 169.033 31.6379C166.218 31.6379 164.699 29.9788 164.545 27.9758H176.885L176.964 26.9594C177.383 21.6328 174.338 17.9707 169.356 17.9707C164.338 17.9707 160.465 21.8048 160.087 26.5525C159.672 31.8044 163.218 35.1614 168.27 35.1614L168.269 35.1623ZM154.903 35.1623C156.69 35.1623 157.928 34.6914 158.63 34.1126L157.958 30.8223C157.699 31.0978 157.063 31.3336 156.407 31.3336C155.447 31.3336 154.959 30.5531 155.038 29.5026L156.412 12.1391H152.048L150.588 30.6566C150.351 33.6013 151.844 35.1614 154.904 35.1614L154.903 35.1623ZM138.129 30.8223C135.622 30.8223 134.04 29.129 134.259 26.3167C134.478 23.5044 136.334 21.8048 138.842 21.8048C140.255 21.8048 141.772 22.5853 142.444 23.6367L142.027 28.957C141.186 30.0076 139.544 30.8214 138.13 30.8214L138.129 30.8223ZM136.44 41.4008C140.529 41.4008 145.53 39.8749 146.02 33.6688L147.228 18.383H142.86L142.696 20.4832C141.492 18.7854 139.736 17.9698 137.741 17.9698C133.543 17.9698 130.187 20.955 129.764 26.3158C129.332 31.7747 132.302 34.6212 136.425 34.6212C138.484 34.6212 140.349 33.703 141.778 32.0781L141.653 33.6679C141.391 36.9924 138.813 37.8701 136.717 37.8701C134.658 37.8701 132.917 37.3012 131.687 35.8779L129.483 38.9612C131.438 40.758 133.623 41.4008 136.44 41.4008ZM125.865 34.7545L126.778 23.1929C127.03 20.007 125.438 17.9716 121.759 17.9716C119.077 17.9716 116.913 19.2625 115.754 20.485L115.918 18.3848H111.554L110.261 34.7545H114.625L115.496 23.7042C116.326 22.7518 117.71 21.8039 119.427 21.8039C121.283 21.8039 122.427 22.5844 122.248 24.852L121.466 34.7545H125.865ZM98.0598 31.3336C95.5469 31.3336 93.9848 29.3999 94.2093 26.5525C94.4283 23.7393 96.2988 21.8048 98.8071 21.8048C100.255 21.8048 101.767 22.615 102.404 23.7051L101.948 29.4666C101.146 30.5522 99.5033 31.3327 98.0598 31.3327V31.3336ZM105.932 34.7545L107.226 18.383H102.827L102.658 20.4832C101.453 18.7854 99.6977 17.9698 97.7368 17.9698C93.5122 17.9698 90.1242 21.2295 89.7072 26.5516C89.2747 32.043 92.2256 35.1614 96.38 35.1614C98.4102 35.1614 100.266 34.2773 101.7 32.6533L101.535 34.7545H105.932ZM85.7946 34.7545L87.0839 18.383H82.7251L81.4312 34.7545H85.7946ZM85.0245 16.615C86.4662 16.615 87.7308 15.4663 87.8403 14.0431C87.9498 12.6198 86.875 11.499 85.4324 11.499C84.732 11.5091 84.0602 11.7746 83.5465 12.2444C83.0328 12.7141 82.7136 13.3548 82.6503 14.0431C82.5408 15.4663 83.6157 16.615 85.0245 16.615ZM73.4254 34.7545L74.2739 23.9392C75.0806 22.8886 77.0661 22.0739 78.5141 22.0739C78.9121 22.0667 79.3098 22.1014 79.7003 22.1775L80.0334 17.9698C77.973 17.9698 75.8543 19.1581 74.5349 20.5805L74.7092 18.3812H70.3504L69.0611 34.7545H73.4254ZM61.7076 34.7545L63.1557 16.3836H69.8221L70.156 12.1427H51.875L51.541 16.3836H58.2394L56.7913 34.7545H61.7076Z" fill="#A8A8A8"/>
</g>
<defs>
<clipPath id="clip0_8912_421">
<rect width="177" height="43" fill="white"/>
</clipPath>
</defs>
</svg>
