<svg width="172" height="41" viewBox="0 0 172 41" fill="none" xmlns="http://www.w3.org/2000/svg">
<g clip-path="url(#clip0_8912_393)">
<path d="M64.7364 11.417H68.7838V29.7681H64.7364V27.1259C63.2076 29.2051 61.0214 30.2447 58.1779 30.2447C55.6028 30.2447 53.4039 29.309 51.5812 27.4377C49.7586 25.5664 48.8464 23.2847 48.8447 20.5926C48.8447 17.8771 49.7569 15.59 51.5812 13.7311C53.4056 11.8723 55.6045 10.9421 58.1779 10.9404C61.0248 10.9404 63.211 11.968 64.7364 14.0231V11.417ZM54.5789 24.7955C55.7034 25.9083 57.1154 26.4647 58.8149 26.4647C60.5144 26.4647 61.926 25.9083 63.0496 24.7955C64.1749 23.6818 64.7372 22.2809 64.7364 20.5926C64.7355 18.9042 64.1733 17.5037 63.0496 16.3909C61.926 15.2773 60.5144 14.7204 58.8149 14.7204C57.1154 14.7204 55.7034 15.2773 54.5789 16.3909C53.4553 17.5037 52.8934 18.9042 52.8934 20.5926C52.8934 22.2809 53.4553 23.6818 54.5789 24.7955Z" fill="#A8A8A8"/>
<path d="M99.516 10.9408C101.665 10.9408 103.401 11.6136 104.725 12.9593C106.049 14.3049 106.712 16.1521 106.713 18.5008V29.7685H102.664V18.905C102.664 17.5352 102.289 16.4831 101.54 15.7487C100.791 15.0144 99.7669 14.6472 98.4675 14.6472C97.0432 14.6472 95.8936 15.0817 95.0188 15.9508C94.144 16.82 93.7066 18.1473 93.7066 19.933V29.7685H89.6592V4.07812H93.7066V13.7664C94.9347 11.8827 96.8712 10.9408 99.516 10.9408Z" fill="#A8A8A8"/>
<path d="M115.257 22.2805C115.556 23.6752 116.243 24.746 117.318 25.4928C118.393 26.2397 119.705 26.614 121.254 26.6156C123.403 26.6156 125.017 25.8571 126.095 24.3401L129.43 26.2488C127.582 28.9161 124.846 30.2493 121.223 30.2484C118.174 30.2484 115.711 29.3373 113.834 27.5151C111.957 25.6929 111.02 23.3866 111.023 20.5963C111.023 17.8567 111.948 15.5629 113.797 13.7149C115.646 11.8669 118.019 10.9421 120.916 10.9404C123.665 10.9404 125.92 11.8823 127.681 13.7661C129.441 15.6498 130.322 17.937 130.323 20.6275C130.311 21.1803 130.261 21.7317 130.174 22.278L115.257 22.2805ZM115.22 19.0506H126.239C125.963 17.5594 125.332 16.4341 124.345 15.6748C123.358 14.9162 122.134 14.5144 120.879 14.5371C119.379 14.5371 118.13 14.9408 117.131 15.7484C116.132 16.556 115.495 17.6567 115.22 19.0506Z" fill="#A8A8A8"/>
<path d="M150.712 29.7684H146.027L141.38 23.4921L136.698 29.7684H131.977L139.022 20.3358L132.351 11.4173H137.036L141.342 17.2158L145.653 11.416H150.374L143.705 20.3733L150.712 29.7684Z" fill="#A8A8A8"/>
<path d="M167.951 11.4177H172V29.7688H167.951V27.1266C166.427 29.2058 164.241 30.2454 161.392 30.2454C158.819 30.2454 156.62 29.3097 154.796 27.4384C152.971 25.5672 152.06 23.2854 152.061 20.5933C152.061 17.8778 152.972 15.5907 154.796 13.7319C156.619 11.873 158.818 10.9432 161.392 10.9424C164.241 10.9424 166.427 11.9699 167.951 14.025V11.4177ZM157.795 24.7962C158.92 25.909 160.332 26.4654 162.029 26.4654C163.727 26.4654 165.139 25.909 166.265 24.7962C167.389 23.6826 167.951 22.2816 167.951 20.5933C167.951 18.9049 167.389 17.5044 166.265 16.3916C165.141 15.278 163.729 14.7211 162.029 14.7211C160.33 14.7211 158.918 15.278 157.795 16.3916C156.67 17.5044 156.108 18.9049 156.108 20.5933C156.108 22.2816 156.67 23.6826 157.795 24.7962Z" fill="#A8A8A8"/>
<path d="M79.4343 6.28027H78.7782L71.9395 13.4274V14.1859H75.5652V24.0413C75.5652 26.4391 76.9538 28.0846 78.303 28.9765C79.6521 29.8685 81.8701 30.133 84.9748 29.7662V26.2083C83.9556 26.2582 82.2014 26.2632 81.5147 26.227C80.828 26.1908 80.3095 26.0062 79.9592 25.6768C79.6088 25.3475 79.4343 24.8036 79.4343 24.0438V14.1884H85.1532V11.4176H79.4343V6.28027Z" fill="#A8A8A8"/>
<path d="M37.3898 13.9465C37.3899 12.8024 37.0824 11.6783 36.4983 10.6874C35.9142 9.69652 35.074 8.87362 34.0622 8.30144L22.469 1.74693C21.457 1.17507 20.3091 0.874023 19.1407 0.874023C17.9723 0.874023 16.8245 1.17507 15.8125 1.74693L4.21924 8.30144C3.20734 8.87353 2.36709 9.6964 1.78296 10.6873C1.19883 11.6783 0.891404 12.8023 0.891602 13.9465V27.0543C0.891662 28.1985 1.19933 29.3226 1.78368 30.3136C2.36803 31.3045 3.20847 32.1273 4.22051 32.6993L15.8137 39.2526C16.8255 39.8251 17.9735 40.1265 19.142 40.1265C20.3105 40.1265 21.4585 39.8251 22.4703 39.2526L34.0635 32.6993C35.0752 32.1271 35.9153 31.3041 36.4994 30.3133C37.0835 29.3224 37.3911 28.1984 37.3911 27.0543L37.3898 13.9465ZM32.5143 33.5739H19.1375C15.5898 33.5739 12.1874 32.1938 9.67872 29.7372C7.17009 27.2807 5.76075 23.9489 5.76075 20.4748C5.76075 17.0007 7.17009 13.6689 9.67872 11.2124C12.1874 8.75585 15.5898 7.37577 19.1375 7.37577C22.6853 7.37577 26.0877 8.75585 28.5964 11.2124C31.105 13.6689 32.5143 17.0007 32.5143 20.4748V33.5739Z" fill="#A8A8A8"/>
</g>
<defs>
<clipPath id="clip0_8912_393">
<rect width="172" height="41" fill="white"/>
</clipPath>
</defs>
</svg>
