<svg width="179" height="39" viewBox="0 0 179 39" fill="none" xmlns="http://www.w3.org/2000/svg">
<g clip-path="url(#clip0_8911_291)">
<path d="M31.6347 3.02389H18.9031C14.5329 3.02389 10.5596 4.82469 7.67517 7.72106C4.79075 10.6174 3.00783 14.6157 3.00783 19.0096V33.6799L0 36.5081V19.0096C0 13.7805 2.12605 9.02737 5.55154 5.58297C8.97703 2.13857 13.7034 0 18.9031 0H31.6347V3.02389ZM31.6347 14.8736H20.8772C19.2646 14.8794 17.7196 15.5262 16.5792 16.6728C15.4388 17.8195 14.7954 19.3731 14.7894 20.9949V24.1264L11.7826 26.6441V20.9949C11.7887 18.5711 12.7488 16.2483 14.4531 14.5344C16.1573 12.8205 18.467 11.855 20.8772 11.8488H31.6347V14.8736ZM31.6347 8.94901H19.8909C16.9784 8.95825 14.1878 10.1259 12.1283 12.197C10.0689 14.2681 8.90782 17.0745 8.89863 20.0035V29.0562L5.8908 31.5744V20.0035C5.8908 16.1308 7.46561 12.611 10.0045 10.0597C12.5434 7.50837 16.0385 5.92415 19.8909 5.92415H31.6347V8.94901Z" fill="#B3B3B3"/>
<path d="M14.7891 35.9749H27.5207C31.8904 35.9749 35.8642 34.1741 38.7486 31.2778C41.633 28.3814 43.416 24.3836 43.416 19.9892V5.31896L46.4238 2.49121V19.9892C46.4238 25.2183 44.2977 29.9719 40.8727 33.4168C37.4477 36.8617 32.7204 38.9998 27.5207 38.9998H14.7891V35.9749Z" fill="#B3B3B3"/>
<path d="M14.7891 30.0507H26.5344C29.4464 30.0408 32.2363 28.873 34.2953 26.8022C36.3544 24.7314 37.5155 21.9256 37.5252 18.9971V9.94106L40.533 7.42383V18.9971C40.533 22.8703 38.9582 26.3902 36.4193 28.941C33.8804 31.4918 30.3828 33.0745 26.5324 33.0745H14.7891V30.0507Z" fill="#B3B3B3"/>
<path d="M14.7891 24.1264H25.5466C27.1593 24.1204 28.7043 23.4734 29.8447 22.3266C30.9851 21.1797 31.6284 19.626 31.6344 18.0041V14.8737L34.6407 12.3555V18.0041C34.6352 20.4281 33.6754 22.7511 31.9711 24.4652C30.2668 26.1792 27.9569 27.1446 25.5466 27.1503H14.7891V24.1264Z" fill="#B3B3B3"/>
<path d="M61.6965 14.8965V20.5316H71.5103V24.4919H61.6965V32.2587H56.79V10.9372H72.8126V14.8965H61.6965ZM75.5083 15.8699H80.2327V32.2572H75.5083V15.8714V15.8699ZM77.87 13.5878C77.0015 13.5878 76.2947 13.3339 75.7498 12.8261C75.2048 12.3183 74.932 11.6887 74.9314 10.9372C74.9314 10.1864 75.2042 9.55692 75.7498 9.0488C76.2954 8.54068 77.0021 8.28679 77.87 8.28711C78.7379 8.28711 79.4443 8.53046 79.9893 9.01716C80.5342 9.50387 80.807 10.1131 80.8077 10.8447C80.8077 11.6368 80.5349 12.2919 79.9893 12.81C79.4437 13.3282 78.7373 13.5878 77.87 13.5888V13.5878ZM94.528 15.6285C96.5468 15.6285 98.1771 16.2377 99.4189 17.4561C100.661 18.6745 101.282 20.4815 101.282 22.877V32.2587H96.5573V23.6085C96.5573 22.3087 96.2745 21.339 95.7089 20.6995C95.1433 20.06 94.3256 19.7402 93.2557 19.7402C92.0642 19.7402 91.1153 20.1106 90.409 20.8513C89.7027 21.5921 89.3493 22.694 89.3486 24.157V32.2587H84.6242V15.8714H89.1367V17.791C89.7623 17.1002 90.5397 16.5671 91.4689 16.1917C92.3981 15.8162 93.4178 15.6285 94.528 15.6285ZM112.124 15.6285C114.649 15.6285 116.587 16.2325 117.94 17.4405C119.292 18.6485 119.969 20.4711 119.97 22.9082V32.2587H115.547V30.2175C114.658 31.7425 113.003 32.505 110.58 32.505C109.329 32.505 108.243 32.2918 107.324 31.8654C106.405 31.4391 105.703 30.8502 105.219 30.0987C104.735 29.3466 104.493 28.4936 104.493 27.5396C104.493 26.0172 105.064 24.8193 106.205 23.9458C107.345 23.0723 109.107 22.6359 111.489 22.6366H115.246C115.246 21.6009 114.933 20.8038 114.306 20.2454C113.68 19.687 112.741 19.4078 111.489 19.4078C110.62 19.4081 109.756 19.5469 108.93 19.819C108.091 20.0929 107.38 20.4634 106.796 20.9307L105.099 17.6099C105.988 16.9811 107.052 16.4944 108.293 16.1498C109.541 15.8044 110.83 15.6306 112.124 15.6329L112.124 15.6285ZM111.762 29.3049C112.569 29.3049 113.285 29.117 113.912 28.7413C114.538 28.3656 114.983 27.8122 115.245 27.0811V25.4054H112.002C110.064 25.4054 109.095 26.0451 109.096 27.3245C109.096 27.9329 109.333 28.415 109.807 28.771C110.281 29.1269 110.932 29.3054 111.761 29.3064L111.762 29.3049ZM134.144 15.6285C136.163 15.6285 137.793 16.2377 139.035 17.4561C140.276 18.6745 140.897 20.4815 140.898 22.877V32.2587H136.174V23.6085C136.174 22.3087 135.891 21.339 135.325 20.6995C134.76 20.06 133.942 19.7402 132.872 19.7402C131.681 19.7402 130.732 20.1106 130.026 20.8513C129.319 21.5921 128.966 22.694 128.966 24.157V32.2587H124.241V15.8714H128.753V17.791C129.379 17.1002 130.157 16.5671 131.086 16.1917C132.015 15.8162 133.034 15.6285 134.145 15.6285H134.144ZM153.225 32.5025C151.488 32.5025 149.928 32.142 148.546 31.4211C147.163 30.7001 146.082 29.7001 145.303 28.421C144.526 27.141 144.137 25.6889 144.137 24.0646C144.137 22.4403 144.526 20.9891 145.304 19.711C146.083 18.4326 147.163 17.4327 148.547 16.7115C149.93 15.9902 151.49 15.6298 153.226 15.6305C154.943 15.6305 156.442 15.9908 157.724 16.7115C159.006 17.4321 159.94 18.4624 160.526 19.8025L156.86 21.7824C156.012 20.2798 154.791 19.5287 153.196 19.529C151.965 19.529 150.945 19.9346 150.137 20.7457C149.329 21.5569 148.926 22.6635 148.927 24.0655C148.927 25.4672 149.331 26.5742 150.137 27.3863C150.944 28.1985 151.963 28.604 153.196 28.6031C154.811 28.6031 156.032 27.8518 156.86 26.3491L160.526 28.3597C159.941 29.6576 159.007 30.6729 157.724 31.4055C156.441 32.1382 154.942 32.5037 153.226 32.502L153.225 32.5025ZM179 24.1264C179 24.1874 178.969 24.6137 178.908 25.4054H166.583C166.805 26.4213 167.329 27.2236 168.157 27.8122C168.984 28.4008 170.014 28.6949 171.246 28.6946C172.095 28.6946 172.847 28.5679 173.503 28.3145C174.158 28.061 174.769 27.66 175.335 27.1113L177.849 29.8524C176.314 31.6192 174.073 32.5025 171.125 32.5025C169.286 32.5025 167.661 32.142 166.249 31.4211C164.837 30.7001 163.747 29.7007 162.978 28.423C162.21 27.143 161.827 25.6908 161.827 24.0665C161.827 22.4627 162.206 21.0162 162.963 19.7271C163.705 18.4505 164.785 17.4059 166.082 16.7095C167.405 15.9889 168.884 15.6285 170.519 15.6285C172.114 15.6285 173.558 15.9738 174.85 16.6642C176.127 17.3396 177.184 18.3703 177.895 19.6331C178.631 20.9235 179 22.4213 179 24.1264H179ZM170.549 19.2243C169.478 19.2243 168.58 19.5287 167.853 20.1374C167.126 20.7461 166.682 21.579 166.52 22.6361H174.546C174.385 21.6004 173.941 20.773 173.214 20.1539C172.487 19.5348 171.598 19.2249 170.549 19.2243Z" fill="#B3B3B3"/>
</g>
<defs>
<clipPath id="clip0_8911_291">
<rect width="179" height="39" fill="white"/>
</clipPath>
</defs>
</svg>
