<svg width="199" height="33" viewBox="0 0 199 33" fill="none" xmlns="http://www.w3.org/2000/svg">
<g clip-path="url(#clip0_8912_404)">
<path fill-rule="evenodd" clip-rule="evenodd" d="M8.04519 14.1314L24.1709 4.72874L16.0945 0L0 9.41322V28.3134L8.04519 33V14.1314ZM24.1397 23.532L16.0945 28.2491V18.8117L32.1828 9.41849L32.2109 28.2375L24.1397 32.9789V23.532Z" fill="#A8A8A8"/>
<path fill-rule="evenodd" clip-rule="evenodd" d="M190.391 18.7097H194.291C193.792 19.9414 192.383 20.7422 190.73 20.7422C188.35 20.7422 186.799 19.0258 186.799 16.5097C186.799 13.963 188.378 12.2403 190.73 12.2403C192.326 12.2403 193.738 13.1075 194.299 14.453H198.828C198.173 10.7515 194.807 8.14168 190.69 8.14168C185.861 8.14168 182.379 11.6682 182.379 16.5107C182.379 21.3533 185.931 24.8608 190.734 24.8608C195.648 24.8608 199.004 21.1626 199.004 15.947H190.395L190.391 18.7097ZM169.384 16.8922L163.38 8.54206H159.593V24.4446H163.782V15.8217L170.005 24.4489H173.577V8.5389H169.384V16.8922ZM149.977 24.4446V8.53469H145.607V24.4446H149.977ZM130.299 17.714L126.482 8.61266H124.996L121.256 17.7056L118.719 8.5389H114.07L118.984 24.4489H122.793L125.743 16.7763L128.756 24.4489H132.562L137.394 8.5389H132.795L130.299 17.714ZM98.6075 20.7801C96.218 20.7801 94.4716 18.9678 94.4716 16.4981C94.4716 14.0126 96.2191 12.2193 98.6075 12.2193C100.996 12.2193 102.724 14.0105 102.724 16.4981C102.724 18.9857 100.994 20.7801 98.6075 20.7801ZM98.6075 24.8598C103.645 24.8598 107.225 21.3701 107.225 16.4981C107.225 11.6261 103.645 8.14062 98.6075 8.14062C93.5699 8.14062 89.968 11.6303 89.968 16.4981C89.968 21.3659 93.5709 24.8598 98.6075 24.8598ZM75.4973 12.4332C76.7003 12.4332 77.3954 13.156 77.3954 14.1674C77.3954 15.1789 76.7003 15.9017 75.4973 15.9017H73.5421V12.4332H75.4973ZM82.4579 24.451L79.3412 18.6749C80.8923 17.7319 81.8346 16.1462 81.8346 14.1759C81.8346 10.84 79.3807 8.54417 76.0074 8.54417H69.2172V24.4446H73.5328V19.5895H75.1015L77.6291 24.4446L82.4579 24.451ZM51.8594 18.7097H55.7511C55.2628 19.9414 53.8437 20.7422 52.1991 20.7422C49.8211 20.7422 48.2586 19.0258 48.2586 16.5097C48.2586 13.963 49.8502 12.2403 52.1991 12.2403C53.7948 12.2403 55.1953 13.1075 55.7708 14.453H60.3004C59.6324 10.7473 56.2664 8.14062 52.1617 8.14062C47.3215 8.14062 43.835 11.6672 43.835 16.5097C43.835 21.3522 47.3869 24.8598 52.1991 24.8598C57.1047 24.8598 60.4604 21.1615 60.4604 15.946H51.8594V18.7097Z" fill="#A8A8A8"/>
</g>
<defs>
<clipPath id="clip0_8912_404">
<rect width="199" height="33" fill="white"/>
</clipPath>
</defs>
</svg>
