<svg width="190" height="37" viewBox="0 0 190 37" fill="none" xmlns="http://www.w3.org/2000/svg">
<g clip-path="url(#clip0_8912_410)">
<path fill-rule="evenodd" clip-rule="evenodd" d="M24.6775 24.6667V12.3346H12.3384V24.6667M8.46701 0H24.6775V12.3346H37.0166V24.6667H24.6775V37H8.46701C3.80352 37 0 33.1966 0 28.5367V8.46389C0 3.8028 3.80352 0 8.46701 0Z" fill="#A8A8A8"/>
<path fill-rule="evenodd" clip-rule="evenodd" d="M187.441 28.224L181.672 20.0532L175.933 28.224H173.317L180.365 18.178L173.497 8.39801H176.052L181.67 16.3664L187.261 8.39801H189.879L182.983 18.2385L190.002 28.224M158.21 8.39801H170.727V10.4207H160.349V17.2568H169.481V19.3368H160.349V26.2045H170.727V28.224H158.21V8.39801ZM149.614 24.0343H153.926V28.224H149.614V24.0343ZM133.467 8.39801H138.282V24.4502H146.907V28.224H133.467V8.39801ZM122.046 17.9991C123.014 17.9991 123.735 17.7474 124.2 17.242C124.665 16.7366 124.9 16.0493 124.9 15.1762C124.9 13.1543 123.948 12.144 122.046 12.1453H118.537V17.9991H122.046ZM118.537 28.224H113.718V8.39801H122.638C125.018 8.39801 126.856 8.93277 128.154 10.0023C129.453 11.0718 130.102 12.6868 130.103 14.8473C130.103 17.0464 129.444 18.7404 128.127 19.9292C126.81 21.118 124.981 21.7124 122.64 21.7124H118.539L118.537 28.224ZM109.497 8.39801V28.224H104.678V14.8201L98.8486 22.5781L93.169 14.8497V28.224H88.5598V8.39801H93.4671L99.0289 16.127L104.709 8.39801H109.497ZM75.475 24.6878C77.0389 24.6878 78.2183 24.1927 79.013 23.2026C79.8078 22.2124 80.2043 20.5771 80.2027 18.2965C80.2027 16.018 79.8117 14.3884 79.0297 13.4077C78.2477 12.4271 77.0634 11.9369 75.4768 11.9373C73.9108 11.9373 72.7362 12.4324 71.953 13.4225C71.1697 14.4127 70.7788 16.0581 70.78 18.3588C70.78 20.618 71.171 22.2377 71.953 23.218C72.7349 24.1983 73.9089 24.6882 75.475 24.6878ZM75.475 28.6399C72.4409 28.6399 70.0713 27.7779 68.3661 26.0539C66.661 24.3299 65.8088 21.7538 65.8097 18.3255C65.8097 14.9557 66.647 12.3939 68.3217 10.6403C69.9964 8.8867 72.3808 8.0103 75.475 8.01113C78.5086 8.01113 80.8828 8.86737 82.5974 10.5799C84.312 12.2923 85.1697 14.8633 85.1705 18.2928C85.1705 21.6627 84.3326 24.2293 82.6567 25.9928C80.9807 27.7563 78.5868 28.6387 75.475 28.6399ZM56.679 28.6109C50.1762 28.6109 46.9248 25.1833 46.9248 18.328C46.9248 11.4122 50.1762 7.95395 56.679 7.95312C58.6821 7.95312 60.7838 8.43873 62.984 9.40995V13.6015C61.0814 12.3316 59.1976 11.6971 57.3328 11.6979C55.5095 11.6979 54.1466 12.2082 53.244 13.2288C52.3415 14.2494 51.8906 15.9483 51.8914 18.3255C51.8914 20.7036 52.3524 22.3873 53.2743 23.3766C54.1962 24.3659 55.6188 24.8624 57.5421 24.8661C58.3352 24.8661 59.1976 24.7168 60.1294 24.4181C61.0612 24.1195 62.0127 23.6545 62.984 23.023V27.2145C62.1704 27.6313 61.1789 27.9675 60.0096 28.2234C58.9168 28.4734 57.8 28.6033 56.679 28.6109Z" fill="#A8A8A8"/>
</g>
<defs>
<clipPath id="clip0_8912_410">
<rect width="190" height="37" fill="white"/>
</clipPath>
</defs>
</svg>
