<svg width="36" height="36" viewBox="0 0 36 36" fill="none" xmlns="http://www.w3.org/2000/svg">
<g clip-path="url(#clip0_8740_134)">
<path d="M36 6C36 2.691 33.309 0 30 0C26.691 0 24 2.691 24 6C24 8.79 25.9155 11.142 28.5 11.8095V12C28.5 14.481 26.481 16.5 24 16.5H22.5C20.7105 16.5 19.0995 17.2875 18 18.5355C16.9005 17.2875 15.2895 16.5 13.5 16.5H12C9.519 16.5 7.5 14.481 7.5 12V11.8095C10.0845 11.142 12 8.79 12 6C12 2.691 9.309 0 6 0C2.691 0 0 2.691 0 6C0 8.79 1.9155 11.142 4.5 11.8095V12C4.5 16.1355 7.8645 19.5 12 19.5H13.5C15.1545 19.5 16.5 20.8455 16.5 22.5V24.1905C13.9155 24.858 12 27.21 12 30C12 33.309 14.691 36 18 36C21.309 36 24 33.309 24 30C24 27.21 22.0845 24.858 19.5 24.1905V22.5C19.5 20.8455 20.8455 19.5 22.5 19.5H24C28.1355 19.5 31.5 16.1355 31.5 12V11.8095C34.0845 11.142 36 8.79 36 6ZM3 6C3 4.3455 4.3455 3 6 3C7.6545 3 9 4.3455 9 6C9 7.6545 7.6545 9 6 9C4.3455 9 3 7.6545 3 6ZM21 30C21 31.6545 19.6545 33 18 33C16.3455 33 15 31.6545 15 30C15 28.3455 16.3455 27 18 27C19.6545 27 21 28.3455 21 30ZM30 9C28.3455 9 27 7.6545 27 6C27 4.3455 28.3455 3 30 3C31.6545 3 33 4.3455 33 6C33 7.6545 31.6545 9 30 9Z" fill="#F0F0F0"/>
</g>
<defs>
<clipPath id="clip0_8740_134">
<rect width="36" height="36" fill="white"/>
</clipPath>
</defs>
</svg>
