<svg width="16" height="16" viewBox="0 0 16 16" fill="none" xmlns="http://www.w3.org/2000/svg">
<g clip-path="url(#clip0_8865_391)">
<path d="M16 8.04888C15.9998 6.52008 15.5616 5.02334 14.7372 3.73586C13.9128 2.44838 12.7368 1.42408 11.3483 0.784217C9.95985 0.144355 8.41713 -0.0842693 6.90277 0.125411C5.38842 0.335091 3.96585 0.974295 2.8035 1.96735C1.64114 2.9604 0.787659 4.26571 0.344106 5.72876C-0.0994477 7.1918 -0.114502 8.7513 0.300725 10.2226C0.715953 11.694 1.54407 13.0155 2.68704 14.0308C3.83002 15.0461 5.23998 15.7127 6.75 15.9515V10.3615H4.71867V8.04888H6.75V6.28622C6.75 4.28155 7.94467 3.17355 9.77133 3.17355C10.3714 3.18216 10.9701 3.23429 11.5627 3.32955V5.29888H10.5533C10.2495 5.25855 9.94208 5.34053 9.69867 5.52681C9.45526 5.71308 9.2958 5.98839 9.25533 6.29222C9.2439 6.3773 9.24211 6.4634 9.25 6.54888V8.04888H11.4667L11.112 10.3615H9.24533V15.9515C11.128 15.6549 12.8429 14.6958 14.0813 13.2469C15.3196 11.7981 16 9.95481 16 8.04888Z" fill="#F0F0F0"/>
</g>
<defs>
<clipPath id="clip0_8865_391">
<rect width="16" height="16" fill="white"/>
</clipPath>
</defs>
</svg>
