<svg width="16" height="16" viewBox="0 0 16 16" fill="none" xmlns="http://www.w3.org/2000/svg">
<g clip-path="url(#clip0_8865_394)">
<path d="M16.001 3.06654C15.401 3.3332 14.801 3.5332 14.1343 3.59987C14.801 3.19987 15.3343 2.5332 15.601 1.79987C14.9343 2.19987 14.2676 2.46654 13.5343 2.59987C12.9343 1.9332 12.0676 1.5332 11.1343 1.5332C9.33431 1.5332 7.86764 2.99987 7.86764 4.79987C7.86764 5.06654 7.86764 5.3332 7.93431 5.5332C5.13431 5.39987 2.73431 4.06654 1.13431 2.06654C0.800977 2.59987 0.667643 3.1332 0.667643 3.7332C0.667643 4.86654 1.26764 5.86654 2.13431 6.46654C1.60098 6.46654 1.06764 6.3332 0.667643 6.06654C0.667643 6.06654 0.667643 6.06654 0.667643 6.1332C0.667643 7.7332 1.80098 9.06654 3.26764 9.3332C3.00098 9.39987 2.73431 9.46654 2.40098 9.46654C2.20098 9.46654 2.00098 9.46654 1.80098 9.39987C2.20098 10.7332 3.40098 11.6665 4.86764 11.6665C3.73431 12.5332 2.33431 13.0665 0.800977 13.0665C0.53431 13.0665 0.267643 13.0665 0.000976562 12.9999C1.46764 13.9332 3.20098 14.4665 5.00098 14.4665C11.0676 14.4665 14.3343 9.46654 14.3343 5.1332C14.3343 4.99987 14.3343 4.86654 14.3343 4.7332C15.001 4.26654 15.5343 3.66654 16.001 3.06654Z" fill="#F0F0F0"/>
</g>
<defs>
<clipPath id="clip0_8865_394">
<rect width="16" height="16" fill="white"/>
</clipPath>
</defs>
</svg>
